<?xml version="1.0" encoding="UTF-8"?>
<svg xmlns="http://www.w3.org/2000/svg" version="1.1" viewBox="0 0 298 512">
  <defs>
    <style>
      .cls-1 {
        fill: #22ec08;
        stroke-width: 0px;
      }
    </style>
  </defs>
  <g id="Layer_1" data-name="Layer 1" image-rendering="optimizeQuality" shape-rendering="geometricPrecision" text-rendering="geometricPrecision">
    <rect class="cls-1" x="0" y="256" width="24.8" height="25.6"/>
    <rect class="cls-1" x="0" y="230.4" width="24.8" height="25.6"/>
    <rect class="cls-1" x="24.8" y="281.6" width="24.8" height="25.6"/>
    <rect class="cls-1" x="24.8" y="256" width="24.8" height="25.6"/>
    <rect class="cls-1" x="24.8" y="230.4" width="24.8" height="25.6"/>
    <rect class="cls-1" x="24.8" y="204.8" width="24.8" height="25.6"/>
    <rect class="cls-1" x="49.7" y="307.2" width="24.8" height="25.6"/>
    <rect class="cls-1" x="49.7" y="281.6" width="24.8" height="25.6"/>
    <rect class="cls-1" x="49.7" y="256" width="24.8" height="25.6"/>
    <rect class="cls-1" x="49.7" y="230.4" width="24.8" height="25.6"/>
    <rect class="cls-1" x="49.7" y="204.8" width="24.8" height="25.6"/>
    <rect class="cls-1" x="49.7" y="179.2" width="24.8" height="25.6"/>
    <rect class="cls-1" x="74.5" y="332.8" width="24.8" height="25.6"/>
    <rect class="cls-1" x="74.5" y="307.2" width="24.8" height="25.6"/>
    <rect class="cls-1" x="74.5" y="281.6" width="24.8" height="25.6"/>
    <rect class="cls-1" x="74.5" y="256" width="24.8" height="25.6"/>
    <rect class="cls-1" x="74.5" y="230.4" width="24.8" height="25.6"/>
    <rect class="cls-1" x="74.5" y="204.8" width="24.8" height="25.6"/>
    <rect class="cls-1" x="74.5" y="179.2" width="24.8" height="25.6"/>
    <rect class="cls-1" x="74.5" y="153.6" width="24.8" height="25.6"/>
    <rect class="cls-1" x="99.3" y="358.4" width="24.8" height="25.6"/>
    <rect class="cls-1" x="99.3" y="332.8" width="24.8" height="25.6"/>
    <rect class="cls-1" x="99.3" y="307.2" width="24.8" height="25.6"/>
    <rect class="cls-1" x="99.3" y="281.6" width="24.8" height="25.6"/>
    <rect class="cls-1" x="99.3" y="256" width="24.8" height="25.6"/>
    <rect class="cls-1" x="99.3" y="230.4" width="24.8" height="25.6"/>
    <rect class="cls-1" x="99.3" y="204.8" width="24.8" height="25.6"/>
    <rect class="cls-1" x="99.3" y="179.2" width="24.8" height="25.6"/>
    <rect class="cls-1" x="99.3" y="153.6" width="24.8" height="25.6"/>
    <rect class="cls-1" x="99.3" y="128" width="24.8" height="25.6"/>
    <rect class="cls-1" x="124.2" y="384" width="24.8" height="25.6"/>
    <rect class="cls-1" x="124.2" y="358.4" width="24.8" height="25.6"/>
    <rect class="cls-1" x="124.2" y="332.8" width="24.8" height="25.6"/>
    <rect class="cls-1" x="124.2" y="307.2" width="24.8" height="25.6"/>
    <rect class="cls-1" x="124.2" y="281.6" width="24.8" height="25.6"/>
    <rect class="cls-1" x="124.2" y="204.8" width="24.8" height="25.6"/>
    <rect class="cls-1" x="124.2" y="179.2" width="24.8" height="25.6"/>
    <rect class="cls-1" x="124.2" y="153.6" width="24.8" height="25.6"/>
    <rect class="cls-1" x="124.2" y="128" width="24.8" height="25.6"/>
    <rect class="cls-1" x="124.2" y="102.4" width="24.8" height="25.6"/>
    <rect class="cls-1" x="149" y="409.6" width="24.8" height="25.6"/>
    <rect class="cls-1" x="149" y="384" width="24.8" height="25.6"/>
    <rect class="cls-1" x="149" y="358.4" width="24.8" height="25.6"/>
    <rect class="cls-1" x="149" y="332.8" width="24.8" height="25.6"/>
    <rect class="cls-1" x="149" y="307.2" width="24.8" height="25.6"/>
    <rect class="cls-1" x="149" y="179.2" width="24.8" height="25.6"/>
    <rect class="cls-1" x="149" y="153.6" width="24.8" height="25.6"/>
    <rect class="cls-1" x="149" y="128" width="24.8" height="25.6"/>
    <rect class="cls-1" x="149" y="102.4" width="24.8" height="25.6"/>
    <rect class="cls-1" x="149" y="76.8" width="24.8" height="25.6"/>
    <rect class="cls-1" x="173.8" y="435.2" width="24.8" height="25.6"/>
    <rect class="cls-1" x="173.8" y="409.6" width="24.8" height="25.6"/>
    <rect class="cls-1" x="173.8" y="384" width="24.8" height="25.6"/>
    <rect class="cls-1" x="173.8" y="358.4" width="24.8" height="25.6"/>
    <rect class="cls-1" x="173.8" y="332.8" width="24.8" height="25.6"/>
    <rect class="cls-1" x="173.8" y="153.6" width="24.8" height="25.6"/>
    <rect class="cls-1" x="173.8" y="128" width="24.8" height="25.6"/>
    <rect class="cls-1" x="173.8" y="102.4" width="24.8" height="25.6"/>
    <rect class="cls-1" x="173.8" y="76.8" width="24.8" height="25.6"/>
    <rect class="cls-1" x="173.8" y="51.2" width="24.8" height="25.6"/>
    <rect class="cls-1" x="198.7" y="460.8" width="24.8" height="25.6"/>
    <rect class="cls-1" x="198.7" y="435.2" width="24.8" height="25.6"/>
    <rect class="cls-1" x="198.7" y="409.6" width="24.8" height="25.6"/>
    <rect class="cls-1" x="198.7" y="384" width="24.8" height="25.6"/>
    <rect class="cls-1" x="198.7" y="358.4" width="24.8" height="25.6"/>
    <rect class="cls-1" x="198.7" y="128" width="24.8" height="25.6"/>
    <rect class="cls-1" x="198.7" y="102.4" width="24.8" height="25.6"/>
    <rect class="cls-1" x="198.7" y="76.8" width="24.8" height="25.6"/>
    <rect class="cls-1" x="198.7" y="51.2" width="24.8" height="25.6"/>
    <rect class="cls-1" x="198.7" y="25.6" width="24.8" height="25.6"/>
    <rect class="cls-1" x="223.5" y="486.4" width="24.8" height="25.6"/>
    <rect class="cls-1" x="223.5" y="460.8" width="24.8" height="25.6"/>
    <rect class="cls-1" x="223.5" y="435.2" width="24.8" height="25.6"/>
    <rect class="cls-1" x="223.5" y="409.6" width="24.8" height="25.6"/>
    <rect class="cls-1" x="223.5" y="384" width="24.8" height="25.6"/>
    <rect class="cls-1" x="223.5" y="102.4" width="24.8" height="25.6"/>
    <rect class="cls-1" x="223.5" y="76.8" width="24.8" height="25.6"/>
    <rect class="cls-1" x="223.5" y="51.2" width="24.8" height="25.6"/>
    <rect class="cls-1" x="223.5" y="25.6" width="24.8" height="25.6"/>
    <rect class="cls-1" x="223.5" y="0" width="24.8" height="25.6"/>
    <rect class="cls-1" x="248.3" y="486.4" width="24.8" height="25.6"/>
    <rect class="cls-1" x="248.3" y="460.8" width="24.8" height="25.6"/>
    <rect class="cls-1" x="248.3" y="435.2" width="24.8" height="25.6"/>
    <rect class="cls-1" x="248.3" y="409.6" width="24.8" height="25.6"/>
    <rect class="cls-1" x="248.3" y="76.8" width="24.8" height="25.6"/>
    <rect class="cls-1" x="248.3" y="51.2" width="24.8" height="25.6"/>
    <rect class="cls-1" x="248.3" y="25.6" width="24.8" height="25.6"/>
    <rect class="cls-1" x="248.3" y="0" width="24.8" height="25.6"/>
    <rect class="cls-1" x="273.2" y="460.8" width="24.8" height="25.6"/>
    <rect class="cls-1" x="273.2" y="435.2" width="24.8" height="25.6"/>
    <rect class="cls-1" x="273.2" y="51.2" width="24.8" height="25.6"/>
    <rect class="cls-1" x="273.2" y="25.6" width="24.8" height="25.6"/>
  </g>
</svg>